<?xml version="1.0" encoding="UTF-8"?>
<svg width="24px" height="24px" viewBox="0 0 24 24" version="1.1" xmlns="http://www.w3.org/2000/svg" xmlns:xlink="http://www.w3.org/1999/xlink">
    <!-- Generator: Sketch 63.1 (92452) - https://sketch.com -->
    <title>_图标/工具栏/01_文档/项目符号@3x</title>
    <desc>Created with Sketch.</desc>
    <g>
        <path fill="none" d="M0 0h24v24H0z"/>
        <path d="M12 19a1.5 1.5 0 1 1 0 3 1.5 1.5 0 0 1 0-3zm-5.5 0a1.5 1.5 0 1 1 0 3 1.5 1.5 0 0 1 0-3zm11 0a1.5 1.5 0 1 1 0 3 1.5 1.5 0 0 1 0-3zM18 3v2H8v4h9v2H8v4h10v2H6V3h12z"/>
    </g>
</svg>