<svg t="1607512841050" class="icon" viewBox="0 0 1024 1024" version="1.1" xmlns="http://www.w3.org/2000/svg" p-id="4561" width="128" height="128">
	<path d="M157.515279 0h708.969342A157.414887 157.414887 0 0 1 1023.9999 156.410965v711.17797A157.414887 157.414887 0 0 1 866.484621 1023.9999H157.515279A157.414887 157.414887 0 0 1 0 867.588935V156.410965A157.414887 157.414887 0 0 1 157.515279 0z" fill="#E82202" p-id="4562">
	</path>
	<path d="M679.454051 90.352932a198.174098 198.174098 0 0 1 74.290189 35.940389A55.316073 55.316073 0 0 1 773.019532 149.684691a47.68627 47.68627 0 0 1-69.069797 58.629014c-5.119999-3.312941-8.934901-8.031372-14.155293-10.842352A85.132541 85.132541 0 0 0 642.509741 181.810178a47.083917 47.083917 0 0 0-30.117644 15.661175 33.631369 33.631369 0 0 0-9.035293 30.117644l17.568625 65.756857a251.683113 251.683113 0 0 1 119.065087 34.936467 338.120751 338.120751 0 0 1 91.256461 81.8196 281.098012 281.098012 0 0 1 47.284702 94.569402 313.123107 313.123107 0 0 1 11.846273 109.126264 351.372515 351.372515 0 0 1-18.873724 90.854893 356.29173 356.29173 0 0 1-142.356064 174.079983A379.080747 379.080747 0 0 1 572.235238 933.646967a393.135648 393.135648 0 0 1-114.447048 0A377.976434 377.976434 0 0 1 250.980368 823.817958a406.387411 406.387411 0 0 1-107.620382-374.864277 399.058784 399.058784 0 0 1 239.234486-283.708207 62.945876 62.945876 0 0 1 52.906662 2.911372A47.68627 47.68627 0 0 1 424.658782 250.980368 304.589774 304.589774 0 0 0 230.901938 495.234461a310.613303 310.613303 0 0 0 16.966273 150.588221A305.392911 305.392911 0 0 0 390.123883 809.160705a275.174875 275.174875 0 0 0 129.104301 31.221958 321.25487 321.25487 0 0 0 108.222735-19.375685 256.200759 256.200759 0 0 0 139.946653-120.470576 209.116842 209.116842 0 0 0 17.970194-42.56627 235.921545 235.921545 0 0 0 0-131.413321 198.776451 198.776451 0 0 0-60.235288-92.159991 268.047033 268.047033 0 0 0-40.156859-28.912938 151.792926 151.792926 0 0 0-40.156859-15.058822c9.436862 37.747447 20.078429 75.595287 30.117644 113.945087l5.521569 27.708232a161.33018 161.33018 0 0 1-130.509792 163.538808 154.804691 154.804691 0 0 1-113.543518-21.283135 170.66665 170.66665 0 0 1-67.061954-86.9396 207.108999 207.108999 0 0 1-11.344313-61.941954 213.433705 213.433705 0 0 1 35.940389-130.509792 236.12233 236.12233 0 0 1 131.41332-90.352932l-11.344312-43.97176a130.509791 130.509791 0 0 1 7.02745-94.569403 139.143516 139.143516 0 0 1 34.032938-43.068231 140.549006 140.549006 0 0 1 50.196073-31.121565A141.753712 141.753712 0 0 1 679.454051 90.352932z" fill="#FFFFFF" p-id="4563">
	</path>
	<path d="M484.191325 435.701918a111.334891 111.334891 0 0 0-27.909017 52.906662 144.363907 144.363907 0 0 0 0 54.914504 82.020384 82.020384 0 0 0 31.221958 50.999211 60.235288 60.235288 0 0 0 47.284701 9.035293A66.158425 66.158425 0 0 0 588.197589 542.117594a160.627435 160.627435 0 0 0-4.21647-21.785096l-32.627448-123.381949a150.588221 150.588221 0 0 0-67.162346 38.751369z" fill="#E82202" p-id="4564">
	</path>
</svg>
